<svg xmlns="http://www.w3.org/2000/svg" height="40" viewBox="0 96 960 960" width="40"><path d="M562.666 956.667Q543 976.333 514.667 976.333q-28.333 0-48-19.666L99.333 589.333Q89 579 84.5 566.666 80 554.333 80 540.667V242.666q0-28.333 19.166-47.499Q118.334 176 146.666 176h298.001q13.666 0 26.666 4.5t23.333 14.833l366.001 366.334Q881 582 881 610.167q0 28.166-20.333 48.499L562.666 956.667ZM250 400q22.333 0 38.5-16.167 16.166-16.167 16.166-38.5t-16.166-38.5q-16.167-16.166-38.5-16.166-22.334 0-38.5 16.166-16.167 16.167-16.167 38.5t16.167 38.5Q227.666 400 250 400Z"/></svg>